<svg width="30" height="30" viewBox="0 0 30 30" fill="none" xmlns="http://www.w3.org/2000/svg">
<path d="M2.43569 13.2304L13.0629 6.8722C13.3258 6.71223 13.6269 6.6258 13.9346 6.62194C14.2423 6.61808 14.5454 6.69693 14.8123 6.85025C15.1018 7.01885 15.3415 7.26107 15.5072 7.55231C15.6728 7.84354 15.7584 8.17343 15.7553 8.50845V12.9564L25.9239 6.87051C26.1869 6.71054 26.4879 6.62411 26.7956 6.62025C27.1033 6.61639 27.4065 6.69524 27.6733 6.84857C27.9628 7.01717 28.2026 7.25938 28.3682 7.55062C28.5338 7.84186 28.6194 8.17174 28.6163 8.50677V20.9419C28.6196 21.277 28.5341 21.607 28.3684 21.8984C28.2028 22.1897 27.9629 22.432 27.6733 22.6006C27.4065 22.7539 27.1033 22.8328 26.7956 22.8289C26.4879 22.8251 26.1869 22.7386 25.9239 22.5787L15.7553 16.49V20.9396C15.759 21.2751 15.6736 21.6056 15.508 21.8974C15.3423 22.1892 15.1022 22.4318 14.8123 22.6006C14.5454 22.7539 14.2423 22.8328 13.9346 22.8289C13.6269 22.8251 13.3258 22.7386 13.0629 22.5787L2.43569 16.2205C2.18305 16.0622 1.97476 15.8424 1.83038 15.5815C1.68599 15.3207 1.61025 15.0275 1.61025 14.7294C1.61025 14.4313 1.68599 14.138 1.83038 13.8772C1.97476 13.6164 2.18305 13.3965 2.43569 13.2383V13.2304Z" fill="#E1E1E6"/>
</svg>
