<svg width="29" height="30" viewBox="0 0 29 30" fill="none" xmlns="http://www.w3.org/2000/svg">
<g clip-path="url(#clip0_1_108)">
<path d="M27.2392 13.2304L16.6119 6.8722C16.349 6.71223 16.048 6.6258 15.7403 6.62194C15.4325 6.61808 15.1294 6.69693 14.8626 6.85025C14.5731 7.01885 14.3333 7.26107 14.1677 7.55231C14.002 7.84354 13.9164 8.17343 13.9196 8.50845V12.9564L3.75091 6.87051C3.488 6.71054 3.18696 6.62411 2.87923 6.62025C2.57151 6.61639 2.26839 6.69524 2.00155 6.84857C1.71203 7.01717 1.47227 7.25938 1.30664 7.55062C1.14101 7.84186 1.0554 8.17174 1.05851 8.50677V20.9419C1.0553 21.277 1.14086 21.607 1.3065 21.8983C1.47213 22.1897 1.71194 22.432 2.00155 22.6006C2.26839 22.7539 2.57151 22.8328 2.87923 22.8289C3.18696 22.8251 3.488 22.7386 3.75091 22.5787L13.9196 16.49V20.9396C13.9159 21.2751 14.0013 21.6056 14.167 21.8974C14.3326 22.1891 14.5726 22.4318 14.8626 22.6006C15.1294 22.7539 15.4325 22.8328 15.7403 22.8289C16.048 22.8251 16.349 22.7386 16.6119 22.5787L27.2392 16.2205C27.4918 16.0622 27.7001 15.8424 27.8445 15.5815C27.9889 15.3207 28.0646 15.0275 28.0646 14.7294C28.0646 14.4313 27.9889 14.138 27.8445 13.8772C27.7001 13.6164 27.4918 13.3965 27.2392 13.2383V13.2304Z" fill="#E1E1E6"/>
</g>
<defs>
<clipPath id="clip0_1_108">
<rect width="28.8089" height="28.8089" fill="white" transform="translate(0.157761 0.319092)"/>
</clipPath>
</defs>
</svg>
