<svg width="30" height="30" viewBox="0 0 30 30" fill="none" xmlns="http://www.w3.org/2000/svg">
<path d="M8.4179 25.0767C8.07243 25.076 7.73308 24.9855 7.43322 24.8139C6.75801 24.4313 6.33826 23.6886 6.33826 22.8823V6.56471C6.33826 5.75614 6.75801 5.01566 7.43322 4.63305C7.74022 4.45661 8.08897 4.36588 8.44303 4.37033C8.79708 4.37479 9.14344 4.47427 9.4459 4.65837L23.3918 13.0062C23.6824 13.1884 23.922 13.4415 24.0881 13.7417C24.2542 14.0419 24.3413 14.3793 24.3413 14.7224C24.3413 15.0654 24.2542 15.4028 24.0881 15.703C23.922 16.0032 23.6824 16.2563 23.3918 16.4385L9.44365 24.7886C9.13412 24.9757 8.77959 25.0753 8.4179 25.0767V25.0767Z" fill="#E1E1E6"/>
</svg>
